<?xml version="1.0" standalone="no"?>
<!DOCTYPE svg PUBLIC "-//W3C//DTD SVG 20010904//EN"
 "http://www.w3.org/TR/2001/REC-SVG-20010904/DTD/svg10.dtd">
<svg version="1.0" xmlns="http://www.w3.org/2000/svg"
 width="300.000000pt" height="300.000000pt" viewBox="0 0 300.000000 300.000000"
 preserveAspectRatio="xMidYMid meet">
<metadata>
Created by potrace 1.10, written by Peter Selinger 2001-2011
</metadata>
<g transform="translate(0.000000,300.000000) scale(0.100000,-0.100000)"
fill="#000000" stroke="none">
<path d="M0 1500 l0 -1500 1500 0 1500 0 0 1500 0 1500 -1500 0 -1500 0 0
-1500z m1902 1255 c10 -22 42 -42 59 -37 8 1 31 -80 34 -118 1 -14 3 -27 4
-30 8 -17 3 -185 -6 -183 -5 1 -10 -4 -10 -12 0 -8 4 -12 8 -9 4 2 10 0 13 -5
4 -5 2 -12 -2 -15 -5 -3 -7 -16 -5 -30 3 -13 0 -27 -7 -31 -8 -5 -8 -10 0 -20
7 -8 7 -21 0 -39 -5 -14 -7 -33 -4 -41 4 -9 1 -15 -7 -15 -8 0 -9 -3 -4 -8 6
-5 70 -4 144 2 178 13 310 -6 390 -54 42 -27 34 -36 -16 -19 -21 8 -45 15 -53
16 -8 1 -51 10 -95 18 -77 16 -258 14 -323 -2 -13 -3 -34 0 -48 7 -21 12 -23
19 -19 49 l6 36 -15 -30 -16 -30 6 35 c3 19 11 40 17 45 7 6 11 36 10 75 -1
36 -2 91 -2 123 0 64 -15 79 -18 16 0 -22 -4 -51 -7 -65 -5 -17 -2 -24 8 -24
16 0 15 -25 -4 -59 -12 -24 -32 -29 -24 -6 4 8 0 23 -7 32 -8 9 -13 19 -13 22
1 3 -1 12 -3 19 -4 9 -9 8 -18 -5 -7 -9 -11 -23 -8 -29 2 -7 -1 -15 -8 -20 -8
-4 -10 -3 -5 5 10 16 -11 40 -32 36 -13 -2 -17 -11 -15 -41 2 -36 1 -36 -6 -9
-7 30 -7 30 -13 6 -4 -14 -2 -31 4 -38 7 -9 7 -13 -1 -13 -6 0 -11 -17 -11
-39 0 -48 -24 -108 -53 -132 -12 -9 -81 -32 -154 -50 -113 -29 -135 -32 -156
-20 -13 7 -24 19 -24 26 0 8 3 12 7 10 4 -2 7 9 8 25 0 17 8 44 16 62 9 17 16
41 16 53 0 13 7 28 15 35 16 13 21 45 7 36 -39 -24 155 267 242 363 26 28 27
31 6 16 -68 -50 -221 -262 -383 -530 l-115 -190 -98 -37 c-104 -40 -233 -100
-234 -108 0 -13 126 -54 160 -53 26 1 43 -4 55 -17 15 -17 14 -25 -28 -141
-25 -68 -57 -168 -72 -222 -15 -54 -39 -129 -55 -165 -15 -37 -30 -89 -33
-115 -5 -54 11 -71 64 -65 28 3 31 9 68 113 21 61 50 135 64 165 34 73 80 191
127 320 40 112 64 165 80 175 8 5 148 31 282 52 59 9 63 -12 28 -159 -16 -68
-38 -197 -50 -288 -11 -91 -24 -194 -29 -230 -18 -123 -22 -172 -13 -166 5 3
9 -1 9 -9 0 -8 -4 -12 -8 -10 -14 9 -19 -45 -19 -235 0 -189 6 -230 29 -216
16 10 25 -22 11 -39 -7 -8 -16 -13 -20 -10 -4 3 -3 -19 4 -48 6 -28 17 -52 23
-52 6 0 15 -4 20 -9 5 -5 3 -6 -4 -2 -8 4 -13 1 -13 -8 0 -9 4 -16 10 -16 5 0
7 -6 4 -14 -5 -14 20 -46 36 -46 5 0 7 -6 4 -13 -3 -8 6 -18 21 -25 33 -15 32
-34 -2 -30 -58 7 -121 136 -143 293 -14 102 -12 381 4 520 51 432 63 508 102
674 14 57 23 106 20 108 -2 2 -37 -2 -77 -10 -41 -9 -107 -21 -147 -27 -75
-12 -83 -18 -102 -79 -13 -40 -69 -193 -79 -216 -5 -11 -24 -56 -41 -100 -18
-44 -35 -84 -39 -90 -3 -5 -6 -12 -7 -15 -1 -8 -24 -64 -34 -85 -17 -34 -50
-137 -50 -155 0 -22 -28 -47 -62 -55 -18 -5 -38 0 -66 16 l-40 23 5 56 c3 30
19 86 35 124 15 38 44 125 64 194 19 69 50 165 69 215 19 49 35 93 35 98 0 5
-13 6 -28 3 -17 -3 -52 3 -87 16 -33 12 -76 26 -95 32 -51 15 -74 33 -58 45
27 19 216 104 298 133 47 17 89 36 93 43 4 6 35 57 68 112 133 221 171 281
251 392 104 144 196 239 273 280 72 39 92 41 107 8z m7 -444 c0 -3 -4 -15 -8
-26 -7 -17 -9 -16 -13 11 -3 24 -1 31 9 27 7 -3 13 -8 12 -12z m7 -73 c4 -7 4
-10 -1 -6 -4 4 -17 3 -29 -3 -20 -10 -20 -10 -2 5 24 19 23 19 32 4z m-73 -80
c-4 -19 -3 -20 6 -8 7 9 11 10 11 3 0 -17 -17 -25 -25 -13 -4 6 -4 17 -1 25 8
23 15 18 9 -7z m623 -79 c3 -5 0 -9 -7 -9 -8 0 -9 -3 0 -13 6 -8 8 -17 4 -20
-3 -4 0 -7 9 -7 8 0 23 -9 33 -20 18 -20 17 -20 -8 -20 -14 0 -28 -4 -31 -9
-3 -5 -20 -11 -38 -14 -18 -3 -129 -26 -246 -50 -210 -44 -240 -56 -242 -92 0
-5 -5 -3 -10 5 -5 8 -10 11 -10 7 0 -4 7 -19 16 -32 14 -21 14 -26 2 -30 -10
-4 -15 -21 -16 -48 0 -23 -4 -53 -8 -66 -7 -23 -8 -23 -22 -5 -14 18 -14 18
-8 1 3 -10 6 -26 6 -35 0 -15 2 -15 10 -2 5 8 10 13 11 10 5 -28 4 -50 -3 -50
-4 0 -5 -18 -2 -39 6 -36 4 -40 -17 -43 -12 -1 -24 -8 -26 -15 -3 -7 3 -10 15
-6 17 4 19 0 18 -36 0 -28 -5 -40 -13 -37 -20 8 -26 -14 -8 -28 12 -9 15 -19
11 -34 -4 -12 -11 -20 -16 -17 -4 3 -10 -2 -14 -10 -4 -10 1 -15 14 -15 21 0
27 -24 9 -35 -6 -4 -8 -13 -6 -19 3 -7 1 -19 -4 -27 -8 -12 -10 -12 -19 1 -11
17 -13 10 -4 -14 3 -8 12 -12 20 -9 21 8 17 -15 -6 -29 -24 -15 -27 -30 -4
-21 15 5 16 2 9 -23 -5 -16 -8 -42 -7 -59 1 -16 -4 -33 -11 -37 -9 -6 -9 -10
2 -17 9 -6 10 -14 3 -27 -5 -11 -8 -34 -6 -51 2 -18 0 -33 -4 -33 -4 0 -8 -26
-9 -57 -3 -64 -4 -66 -27 -57 -13 5 -16 16 -14 48 2 26 8 40 15 39 7 -2 10 4
6 13 -3 8 -10 13 -15 12 -13 -5 -48 -105 -48 -138 0 -18 -3 -21 -9 -11 -5 7
-5 26 -1 42 5 15 5 30 2 34 -4 4 1 13 12 20 14 11 17 21 12 42 -4 17 -3 23 2
15 16 -24 29 9 36 86 3 39 3 72 0 72 -3 0 -12 -7 -20 -15 -9 -9 -11 -15 -4
-15 12 0 10 -109 -2 -117 -5 -2 -8 2 -8 9 0 8 -5 6 -11 -5 -6 -10 -8 -25 -5
-34 4 -9 -1 -21 -11 -28 -13 -9 -17 -24 -14 -50 1 -21 -1 -35 -6 -32 -6 4 -10
-7 -10 -22 0 -22 4 -27 18 -24 11 3 19 -2 22 -14 3 -12 5 -9 6 10 0 15 6 27
12 27 7 0 8 -16 3 -47 -7 -49 -18 -72 -31 -60 -4 4 -1 13 5 19 7 7 12 16 12
22 0 5 -9 0 -21 -12 -11 -13 -22 -41 -25 -64 -3 -35 -2 -39 9 -25 10 15 12 7
12 -43 1 -33 -3 -60 -7 -60 -4 0 -7 -10 -7 -22 1 -17 2 -19 6 -5 10 37 19 14
17 -42 0 -33 3 -65 8 -73 6 -9 7 -5 3 12 -5 23 -5 23 6 6 10 -16 9 -21 -5 -31
-9 -7 -16 -16 -16 -20 0 -13 -42 -45 -51 -39 -5 3 -7 10 -4 15 3 5 -1 6 -10 3
-9 -4 -14 -12 -11 -19 3 -8 -4 -12 -19 -11 -13 0 -21 3 -19 5 2 2 -1 10 -8 18
-15 19 -7 24 46 26 39 2 48 6 52 24 7 25 1 82 -12 128 -12 41 -9 382 4 398 10
12 25 185 23 259 -1 25 4 40 15 46 11 6 14 14 8 23 -11 18 -15 69 -7 89 4 8 7
26 7 40 1 16 9 28 24 35 20 8 23 16 19 41 -6 38 16 76 39 67 13 -5 15 -1 10
14 -4 11 -2 33 4 49 11 27 10 27 -8 11 -10 -9 -23 -17 -29 -17 -16 0 -36 27
-24 34 5 3 12 0 14 -6 3 -7 3 2 0 19 -3 19 0 39 6 47 9 11 9 19 0 34 -20 31
-4 56 31 48 l30 -5 0 48 c0 29 6 53 14 60 7 6 16 24 20 39 13 55 54 74 276
120 113 24 220 46 238 49 37 6 37 8 17 56 -8 20 -15 38 -15 41 0 7 40 -6 46
-15z m-1489 -304 c0 -8 -4 -12 -9 -9 -5 3 -6 10 -3 15 9 13 12 11 12 -6z m803
-990 c0 -8 -4 -15 -8 -15 -5 0 -9 7 -9 15 0 8 4 15 9 15 4 0 8 -7 8 -15z m40
-177 c-4 -138 -5 -147 -8 -63 -2 79 -6 103 -19 113 -16 11 -16 12 0 12 20 0
23 30 5 48 -9 9 -9 12 0 12 7 0 12 9 12 20 0 11 3 20 8 20 4 0 5 -73 2 -162z
m-46 6 c-5 -21 -4 -25 6 -19 10 6 11 4 6 -11 -5 -10 -7 -51 -7 -89 1 -39 -2
-82 -8 -95 -8 -20 -10 -10 -11 50 -1 41 -3 86 -5 100 -6 35 4 90 16 90 5 0 7
-11 3 -26z m-140 -96 c4 -44 3 -69 -4 -73 -6 -4 -14 -5 -16 -2 -11 11 -27 134
-20 152 13 34 33 -5 40 -77z m-5 -93 c14 8 34 -23 27 -41 -3 -9 -12 -14 -20
-11 -7 3 -19 0 -25 -6 -16 -16 -41 17 -41 53 0 37 10 43 32 20 11 -11 23 -18
27 -15z"/>
<path d="M1872 2715 c23 -47 44 -62 33 -22 -10 31 -34 67 -45 67 -5 0 0 -20
12 -45z"/>
<path d="M1798 2714 c-25 -13 -39 -36 -20 -33 21 4 34 -3 44 -26 13 -30 28
-33 28 -6 0 11 5 23 10 26 6 3 10 12 10 18 0 8 -4 7 -9 -2 -7 -11 -10 -9 -13
9 -4 30 -16 33 -50 14z"/>
<path d="M1910 2710 c14 -27 29 -34 23 -11 -3 11 -11 22 -19 25 -11 4 -12 2
-4 -14z"/>
<path d="M1954 2604 c0 -55 3 -83 10 -81 12 4 11 146 -2 159 -4 4 -7 -31 -8
-78z"/>
<path d="M1871 2643 c0 -25 1 -26 9 -8 5 11 9 14 9 7 1 -7 6 -10 13 -6 7 5 9
2 6 -8 -4 -8 -2 -21 3 -29 7 -11 9 -8 9 9 0 13 4 20 10 17 6 -3 10 3 10 14 0
11 -5 23 -12 27 -7 4 -8 3 -4 -4 9 -15 -9 -15 -35 -2 -17 9 -19 7 -18 -17z"/>
<path d="M1754 2648 c-3 -5 -2 -18 1 -31 7 -20 6 -21 -7 -4 -13 18 -15 17 -33
-4 -11 -12 -14 -19 -6 -14 11 6 13 4 8 -8 -10 -26 24 -30 52 -5 21 19 23 19
11 3 -23 -31 -40 -47 -40 -38 0 4 -13 -12 -29 -36 -25 -38 -29 -40 -28 -18 1
14 5 23 9 21 4 -2 14 6 22 18 14 20 14 23 -4 35 -18 13 -23 11 -48 -18 -15
-18 -27 -42 -27 -53 0 -12 -5 -20 -12 -19 -7 2 -22 -12 -34 -29 -13 -17 -17
-28 -9 -23 8 5 22 10 31 10 14 1 14 -3 -4 -33 -15 -25 -22 -30 -28 -20 -9 14
-9 14 -13 -19 -2 -13 -5 -25 -8 -29 -9 -8 -4 49 5 64 5 6 5 12 0 12 -9 -1 -63
-83 -63 -96 0 -5 9 6 21 25 11 18 23 31 26 27 3 -3 -6 -24 -22 -47 -18 -28
-30 -38 -35 -30 -5 9 -9 8 -13 -4 -4 -9 -3 -13 3 -10 6 3 10 1 10 -5 0 -6 5
-8 11 -4 8 4 9 -1 4 -17 -8 -24 -24 -41 -35 -34 -3 2 -4 -11 -4 -28 1 -18 6
-31 12 -30 6 1 13 -4 16 -13 3 -8 2 -12 -3 -9 -5 3 -12 1 -16 -5 -3 -5 -1 -10
5 -10 6 0 8 -5 5 -10 -4 -6 -10 -8 -13 -6 -4 2 -17 -13 -28 -33 l-21 -38 141
37 141 36 26 85 c59 185 71 242 75 339 2 54 1 105 -2 114 -6 15 -42 18 -50 4z
m-17 -50 c2 -17 0 -19 -7 -8 -5 8 -6 18 -4 22 8 12 10 10 11 -14z m-55 -58
c-9 -16 -21 -30 -27 -30 -5 0 -3 -5 5 -10 9 -6 10 -10 3 -10 -23 0 -22 16 3
48 32 40 38 41 16 2z m-70 -92 c-7 -7 -12 -8 -12 -2 0 6 3 14 7 17 3 4 9 5 12
2 2 -3 -1 -11 -7 -17z m58 13 c0 -2 -14 -26 -31 -52 -17 -27 -32 -55 -33 -64
-1 -8 -11 -22 -22 -31 -13 -11 -15 -17 -6 -20 6 -3 12 -10 12 -16 0 -6 -6 -6
-15 2 -21 17 -60 -46 -42 -69 10 -14 10 -14 -4 -3 -14 11 -18 9 -23 -14 -5
-20 -10 -24 -18 -16 -9 9 -6 18 10 35 12 13 19 27 15 30 -3 4 -1 7 7 7 10 0
10 3 1 14 -10 12 -9 20 5 41 11 17 20 22 24 15 4 -7 21 7 42 37 55 76 63 94
47 104 -10 6 -7 8 9 6 12 0 22 -3 22 -6z"/>
<path d="M1530 2290 c-12 -23 2 -27 19 -6 8 9 8 16 2 20 -6 4 -15 -3 -21 -14z"/>
<path d="M1850 2593 c0 -17 5 -35 11 -39 6 -3 9 -14 6 -24 -3 -13 0 -17 9 -13
8 3 12 9 9 13 -3 5 0 10 7 12 7 3 8 10 4 17 -7 11 -10 11 -17 0 -6 -10 -9 -7
-9 11 0 14 -5 32 -10 40 -7 11 -10 7 -10 -17z"/>
<path d="M1920 2580 c-12 -7 -12 -11 -2 -20 6 -5 10 -7 7 -4 -3 4 0 13 6 21
13 15 10 16 -11 3z"/>
<path d="M1900 2505 c0 -14 2 -25 4 -25 2 0 6 11 8 25 3 14 1 25 -3 25 -5 0
-9 -11 -9 -25z"/>
<path d="M1931 2514 c0 -11 3 -14 6 -6 3 7 2 16 -1 19 -3 4 -6 -2 -5 -13z"/>
<path d="M1835 2511 c-3 -5 -1 -12 5 -16 5 -3 10 1 10 9 0 18 -6 21 -15 7z"/>
<path d="M1965 2510 c-16 -7 -17 -9 -3 -9 9 -1 20 4 23 9 7 11 7 11 -20 0z"/>
<path d="M1858 2483 c-3 -13 -3 -25 2 -28 9 -5 6 -51 -5 -78 -4 -10 -5 -21 -2
-24 9 -9 27 44 26 75 -1 15 -4 38 -8 52 -7 25 -7 25 -13 3z"/>
<path d="M1922 2470 c0 -14 2 -19 5 -12 2 6 2 18 0 25 -3 6 -5 1 -5 -13z"/>
<path d="M1972 2465 c0 -16 2 -22 5 -12 2 9 2 23 0 30 -3 6 -5 -1 -5 -18z"/>
<path d="M1825 2425 c7 -31 12 -41 19 -34 2 2 -3 18 -11 34 l-14 30 6 -30z"/>
<path d="M1912 2385 c0 -16 2 -22 5 -12 2 9 2 23 0 30 -3 6 -5 -1 -5 -18z"/>
<path d="M1932 2330 c0 -14 2 -19 5 -12 2 6 2 18 0 25 -3 6 -5 1 -5 -13z"/>
<path d="M1757 2203 c-4 -3 -7 -16 -6 -27 0 -19 1 -19 10 3 10 24 8 36 -4 24z"/>
<path d="M1435 2120 c-14 -27 -14 -29 0 -23 9 3 14 8 11 11 -3 2 -1 13 5 23 5
11 7 19 5 19 -3 0 -12 -13 -21 -30z"/>
<path d="M1737 2143 c-4 -3 -7 -11 -7 -17 0 -6 5 -5 12 2 6 6 9 14 7 17 -3 3
-9 2 -12 -2z"/>
<path d="M1530 490 c0 -5 5 -10 10 -10 6 0 10 5 10 10 0 6 -4 10 -10 10 -5 0
-10 -4 -10 -10z"/>
<path d="M1910 1790 c0 -5 5 -10 11 -10 5 0 7 5 4 10 -3 6 -8 10 -11 10 -2 0
-4 -4 -4 -10z"/>
<path d="M1890 1759 c0 -13 5 -31 10 -39 7 -11 9 -6 7 18 -4 39 -17 55 -17 21z"/>
<path d="M1895 1690 c3 -5 8 -10 11 -10 2 0 4 5 4 10 0 6 -5 10 -11 10 -5 0
-7 -4 -4 -10z"/>
<path d="M1820 1653 c0 -15 2 -15 9 -4 8 13 12 13 28 0 16 -13 17 -13 4 4 -7
9 -20 17 -27 17 -8 0 -14 -8 -14 -17z"/>
<path d="M1876 1555 c8 -34 12 -41 20 -33 3 4 -2 19 -10 35 l-16 28 6 -30z"/>
<path d="M1823 1545 c0 -23 1 -24 12 -8 13 18 11 33 -4 33 -5 0 -8 -11 -8 -25z"/>
<path d="M1865 1440 c-3 -5 -1 -10 4 -10 6 0 11 5 11 10 0 6 -2 10 -4 10 -3 0
-8 -4 -11 -10z"/>
<path d="M1813 1424 c-15 -16 -16 -24 -4 -24 8 0 24 30 19 35 -2 2 -9 -3 -15
-11z"/>
<path d="M1840 1392 c0 -7 -4 -11 -9 -8 -5 4 -7 -4 -3 -16 3 -12 7 -17 10 -10
2 7 8 10 13 6 12 -7 11 7 -1 26 -7 11 -10 11 -10 2z"/>
<path d="M1801 1331 c-9 -6 -10 -11 -2 -15 6 -4 11 -2 11 5 0 8 4 8 15 -1 12
-10 15 -10 15 4 0 17 -17 21 -39 7z"/>
<path d="M1771 1314 c0 -11 3 -14 6 -6 3 7 2 16 -1 19 -3 4 -6 -2 -5 -13z"/>
<path d="M1817 1273 c-3 -16 -2 -34 2 -41 5 -8 8 4 9 27 2 47 -3 54 -11 14z"/>
<path d="M1783 1269 c-15 -5 -23 -16 -22 -31 1 -17 2 -18 6 -5 2 9 11 17 18
17 13 0 31 18 24 24 -2 2 -14 0 -26 -5z"/>
<path d="M1851 1264 c0 -11 3 -14 6 -6 3 7 2 16 -1 19 -3 4 -6 -2 -5 -13z"/>
<path d="M1757 1203 c-3 -5 1 -14 9 -21 12 -11 14 -9 14 8 0 20 -14 27 -23 13z"/>
<path d="M1800 1160 c0 -5 5 -10 10 -10 6 0 10 5 10 10 0 6 -4 10 -10 10 -5 0
-10 -4 -10 -10z"/>
<path d="M1752 1120 c0 -19 2 -27 5 -17 2 9 2 25 0 35 -3 9 -5 1 -5 -18z"/>
<path d="M1803 1125 c-8 -9 -9 -16 -3 -20 6 -3 13 1 16 10 9 21 2 26 -13 10z"/>
<path d="M1830 1121 c0 -6 4 -12 8 -15 5 -3 9 1 9 9 0 8 -4 15 -9 15 -4 0 -8
-4 -8 -9z"/>
<path d="M1748 1055 c-6 -30 -3 -43 8 -33 3 4 4 19 2 35 l-3 28 -7 -30z"/>
<path d="M1832 1060 c0 -14 2 -19 5 -12 2 6 2 18 0 25 -3 6 -5 1 -5 -13z"/>
<path d="M1756 1002 c-2 -4 -1 -14 5 -22 7 -12 9 -10 9 8 0 23 -5 28 -14 14z"/>
<path d="M1742 960 c0 -14 2 -19 5 -12 2 6 2 18 0 25 -3 6 -5 1 -5 -13z"/>
<path d="M1810 925 c0 -8 5 -15 10 -15 6 0 10 7 10 15 0 8 -4 15 -10 15 -5 0
-10 -7 -10 -15z"/>
<path d="M1810 836 c-12 -33 -12 -36 -1 -36 9 0 22 52 15 59 -2 2 -8 -8 -14
-23z"/>
<path d="M1720 690 c0 -11 2 -20 4 -20 2 0 6 9 9 20 3 11 1 20 -4 20 -5 0 -9
-9 -9 -20z"/>
<path d="M1712 530 c0 -19 2 -27 5 -17 2 9 2 25 0 35 -3 9 -5 1 -5 -18z"/>
<path d="M1600 585 c0 -8 4 -15 10 -15 5 0 7 7 4 15 -4 8 -8 15 -10 15 -2 0
-4 -7 -4 -15z"/>
<path d="M1600 553 c0 -5 5 -15 10 -23 8 -12 10 -11 10 8 0 12 -4 22 -10 22
-5 0 -10 -3 -10 -7z"/>
<path d="M1610 493 c0 -13 5 -23 10 -23 13 0 13 11 0 30 -8 12 -10 11 -10 -7z"/>
<path d="M1585 420 c3 -19 10 -39 16 -45 7 -7 8 -1 3 20 -11 46 -26 67 -19 25z"/>
<path d="M1630 408 c0 -9 5 -20 10 -23 13 -8 13 5 0 25 -8 13 -10 13 -10 -2z"/>
</g>
</svg>
